<?xml version="1.0" encoding="utf-8"?>
<!-- Generator: Adobe Illustrator 21.1.0, SVG Export Plug-In . SVG Version: 6.00 Build 0)  -->
<svg version="1.1" id="Layer_1" xmlns="http://www.w3.org/2000/svg" xmlns:xlink="http://www.w3.org/1999/xlink" x="0px" y="0px"
	 viewBox="0 0 600 141" style="enable-background:new 0 0 600 141;" xml:space="preserve">
<style type="text/css">
	.st0{fill:#F9C825;}
	.st1{fill:#353533;}
</style>
<title>sh_logo</title>
<desc>Created with Sketch.</desc>
<g id="Page-1">
	<g id="sh_logo">
		<path id="Fill-1" class="st0" d="M135.2,43.2c-3.1-7.4-7.4-14.1-12.8-20l-0.3,1.5l-2.5,12c6.6,9.6,10.5,21.3,10.5,33.9
			c0,33-26.7,59.7-59.7,59.7c-6.6,0-12.9-1.1-18.8-3c-0.2,0.4-0.3,0.8-0.5,1.1c-0.2,0.4-0.4,0.8-0.6,1.1c-1,1.7-2.1,3.3-3.5,4.7
			c-0.3,0.3-0.6,0.6-0.8,0.8c-0.1,0-0.1,0.1-0.2,0.1c-0.4,0.3-0.7,0.6-1.1,0.9c8.1,3.1,16.7,4.7,25.4,4.7c9.5,0,18.7-1.9,27.4-5.5
			c8.4-3.5,15.9-8.6,22.4-15.1s11.5-14,15.1-22.4c3.7-8.7,5.5-17.9,5.5-27.4C140.7,61.1,138.9,51.9,135.2,43.2"/>
		<path id="Fill-2" class="st0" d="M70.4,10.9c6.4,0,12.6,1,18.4,2.9c0.1-0.4,0.2-0.8,0.3-1.2c0.1-0.4,0.3-0.8,0.4-1.2
			c0.7-1.8,1.6-3.5,2.7-5.1c0.3-0.4,0.5-0.7,0.8-1c0.2-0.3,0.5-0.6,0.7-0.8c0.1-0.1,0.1-0.1,0.2-0.2c-7.5-2.7-15.4-4-23.5-4
			c-9.5,0-18.7,1.9-27.4,5.5c-8.4,3.5-15.9,8.6-22.4,15.1S9.1,34.9,5.5,43.3C1.9,51.9,0,61.1,0,70.6S1.9,89.3,5.5,98
			c3.1,7.2,7.3,13.8,12.5,19.6l2.9-13.4c-6.5-9.6-10.3-21.1-10.3-33.6C10.6,37.6,37.4,10.9,70.4,10.9"/>
		<path id="Fill-3" class="st1" d="M45.8,123.9l9.6-43.4h26.4l-7.3,33.9h8.9c0.1,0,0.3,0,0.4,0c9.6,0,13.6-7,15-10.5L114.2,30
			l0.3-1.5l1.9-9.4l3.3-15.9h-8.3c0,0-6,0-10.8,3.8c-0.4,0.3-0.7,0.6-1,0.9S99,8.5,98.7,8.8c-1.2,1.3-2.2,2.9-2.9,4.9
			c-0.1,0.4-0.3,0.8-0.4,1.2s-0.2,0.8-0.3,1.2c0,0.1,0,0.2-0.1,0.3v-0.3L86.1,60H59.7l6.5-30.7h-9.1c-12.7,0-15.6,12.3-15.6,12.4
			L21,135h8.4c0,0,4.1,0,8.3-2.1c0.4-0.2,0.9-0.5,1.3-0.7c0.4-0.2,0.8-0.5,1.2-0.8c1.5-1.1,2.9-2.5,4.1-4.3c0.2-0.3,0.4-0.7,0.6-1.1
			c0.2-0.4,0.4-0.7,0.5-1.1C45.6,124.6,45.7,124.2,45.8,123.9"/>
		<path id="Fill-4" class="st1" d="M209.9,44.2c-0.6,0.7-1.1,1.3-1.7,1.7c-0.5,0.4-1.2,0.6-2,0.6c-0.7,0-1.5-0.2-2.2-0.7
			s-1.6-1-2.5-1.6s-2-1.1-3.2-1.6s-2.6-0.7-4.2-0.7c-1.5,0-2.8,0.2-3.9,0.6c-1.1,0.4-2,1-2.8,1.7c-0.7,0.7-1.3,1.6-1.7,2.6
			s-0.6,2.1-0.6,3.3c0,1.3,0.4,2.4,1.1,3.2c0.7,0.9,1.7,1.6,2.9,2.3s2.6,1.3,4.1,1.8s3.1,1.1,4.6,1.8c1.6,0.6,3.1,1.4,4.7,2.2
			c1.5,0.8,2.9,1.9,4.1,3.1c1.2,1.3,2.2,2.8,2.9,4.5c0.7,1.8,1.1,3.9,1.1,6.4c0,3.5-0.6,6.9-1.8,10s-3,5.8-5.2,8.2
			c-2.3,2.3-5,4.2-8.3,5.5c-3.3,1.4-6.9,2-11,2c-2,0-4.1-0.2-6.1-0.7c-2-0.4-4-1.1-5.9-1.9s-3.6-1.8-5.2-2.9c-1.6-1.1-3-2.4-4.1-3.8
			l5.6-7.3c0.4-0.5,1-1,1.7-1.3c0.7-0.4,1.3-0.5,2-0.5c0.9,0,1.8,0.3,2.6,0.9c0.9,0.6,1.8,1.3,2.8,2.1c1,0.8,2.2,1.4,3.6,2.1
			c1.4,0.6,3,0.9,5,0.9c2.9,0,5.2-0.8,6.8-2.4s2.4-3.9,2.4-7.1c0-1.4-0.4-2.6-1.1-3.6c-0.7-0.9-1.7-1.7-2.8-2.4
			c-1.2-0.6-2.5-1.2-4-1.7s-3.1-1-4.6-1.6c-1.6-0.6-3.1-1.3-4.6-2c-1.5-0.8-2.8-1.8-4-3.1c-1.2-1.3-2.1-2.8-2.8-4.7
			c-0.7-1.8-1.1-4.1-1.1-6.8c0-3.1,0.6-6.1,1.8-9s2.8-5.4,5-7.6c2.2-2.2,4.8-4,7.9-5.3c3.1-1.3,6.6-2,10.5-2c2,0,3.9,0.2,5.8,0.6
			c1.9,0.4,3.6,1,5.3,1.7c1.6,0.7,3.1,1.6,4.5,2.6c1.3,1,2.5,2.1,3.4,3.3L209.9,44.2"/>
		<path id="Fill-5" class="st1" d="M240.1,59.8c-2.5,0-4.6,1-6.5,3c-1.9,2-3.3,4.7-4.2,8.1c3.1-0.5,5.6-1,7.6-1.5
			c1.9-0.5,3.4-1.1,4.5-1.7s1.8-1.3,2.1-2s0.6-1.5,0.6-2.3s-0.3-1.6-1-2.4C242.5,60.2,241.5,59.8,240.1,59.8L240.1,59.8z
			 M257.6,62.7c0,2.3-0.4,4.4-1.3,6.3s-2.5,3.6-4.7,5c-2.2,1.5-5.2,2.7-9,3.7s-8.5,1.8-14.2,2.4c0.1,3.4,0.8,5.9,2.2,7.5
			s3.5,2.4,6.3,2.4c1.3,0,2.5-0.1,3.4-0.3c1-0.2,1.8-0.5,2.5-0.9s1.4-0.7,1.9-1.1c0.6-0.4,1.1-0.8,1.7-1.1c0.5-0.4,1.1-0.6,1.7-0.9
			c0.6-0.2,1.2-0.3,2-0.3c0.5,0,0.9,0.1,1.4,0.4c0.4,0.2,0.9,0.6,1.2,0.9l3.9,4.5c-1.8,1.7-3.5,3.2-5.2,4.5s-3.4,2.3-5.2,3.1
			c-1.8,0.8-3.7,1.4-5.7,1.8s-4.2,0.6-6.6,0.6c-3,0-5.7-0.5-8.1-1.5c-2.5-1-4.6-2.4-6.4-4.3c-1.8-1.8-3.2-4.1-4.1-6.7
			s-1.5-5.5-1.5-8.7c0-2.7,0.3-5.3,0.9-7.8c0.6-2.5,1.4-4.9,2.6-7.1c1.1-2.2,2.5-4.3,4.1-6.2s3.4-3.5,5.4-4.8s4.2-2.4,6.6-3.2
			c2.4-0.8,4.9-1.1,7.6-1.1c2.7,0,5,0.4,7.1,1.2s3.8,1.8,5.2,3s2.5,2.6,3.2,4.2C257.2,59.6,257.6,61.1,257.6,62.7L257.6,62.7z"/>
		<path id="Fill-6" class="st1" d="M259.2,100.3l6.1-49.9h7.7c1.5,0,2.7,0.4,3.6,1.1s1.3,1.9,1.3,3.5v5.7c1.2-2.2,2.5-4,3.9-5.5
			s2.8-2.7,4.3-3.6c1.5-0.8,3-1.3,4.5-1.4c1.5-0.1,3.1,0.2,4.6,0.9l-2.7,13.8c-1.8-0.8-3.5-1.1-5.1-1.1c-1.6,0.1-3,0.6-4.4,1.6
			c-1.3,1-2.5,2.6-3.6,4.6c-1.1,2.1-2,4.7-2.8,7.8l-2.7,22.4L259.2,100.3"/>
		<path id="Fill-7" class="st1" d="M297.2,50.4h12.3c1,0,1.8,0.2,2.4,0.7s1,1.1,1.1,1.9l3.3,22.4c0.3,1.9,0.5,3.7,0.7,5.6
			c0.2,1.8,0.4,3.6,0.5,5.5c0.6-1.8,1.2-3.6,1.9-5.4c0.7-1.8,1.4-3.7,2.2-5.6l8.8-22.4c0.4-0.7,0.9-1.4,1.6-1.9s1.5-0.7,2.4-0.7
			h11.8L322,100.3h-12.6L297.2,50.4"/>
		<path id="Fill-8" class="st1" d="M366.6,36.7c0,1.2-0.3,2.3-0.8,3.3s-1.2,2-2,2.7c-0.8,0.8-1.8,1.4-2.9,1.9s-2.2,0.7-3.3,0.7
			c-1.1,0-2.2-0.2-3.2-0.7s-1.9-1.1-2.7-1.9c-0.8-0.8-1.4-1.7-1.9-2.7s-0.7-2.2-0.7-3.3c0-1.2,0.2-2.3,0.7-3.4
			c0.5-1.1,1.1-2,1.9-2.8s1.7-1.4,2.8-1.9c1-0.5,2.1-0.7,3.2-0.7c1.2,0,2.3,0.2,3.3,0.7c1.1,0.4,2,1.1,2.8,1.9s1.5,1.7,2,2.8
			C366.3,34.4,366.6,35.5,366.6,36.7L366.6,36.7z M363.8,50.4l-6,49.9h-14.7l6-49.9H363.8L363.8,50.4z"/>
		<path id="Fill-9" class="st1" d="M399.9,60.9c-0.4,0.6-0.9,1-1.3,1.3s-0.9,0.4-1.5,0.4s-1.3-0.1-1.9-0.4c-0.6-0.3-1.3-0.6-2-1
			s-1.5-0.7-2.5-1c-0.9-0.3-2-0.4-3.2-0.4c-2.2,0-3.8,0.4-4.7,1.3c-0.9,0.8-1.4,1.9-1.4,3.3c0,0.9,0.3,1.6,0.8,2.2s1.2,1.2,2.1,1.6
			c0.9,0.5,1.9,0.9,3,1.3s2.2,0.8,3.4,1.3c1.2,0.5,2.3,1.1,3.4,1.7s2.1,1.4,3,2.4c0.9,0.9,1.6,2,2.1,3.3s0.8,2.8,0.8,4.6
			c0,2.5-0.5,4.9-1.5,7.1s-2.4,4.2-4.3,5.8c-1.9,1.7-4.1,3-6.8,3.9c-2.6,1-5.6,1.5-8.9,1.5c-1.6,0-3.1-0.2-4.7-0.5
			c-1.5-0.3-3-0.8-4.4-1.3s-2.6-1.2-3.7-1.9c-1.1-0.8-2-1.6-2.7-2.4l3.7-5.5c0.4-0.6,1-1.1,1.6-1.5s1.3-0.6,2.2-0.6
			c0.8,0,1.5,0.2,2.1,0.6s1.2,0.8,1.9,1.3c0.7,0.5,1.5,0.9,2.4,1.3s2.1,0.6,3.7,0.6c2.1,0,3.7-0.5,4.7-1.4s1.5-2.1,1.5-3.3
			c0-1-0.3-1.8-0.8-2.5c-0.5-0.6-1.2-1.2-2.1-1.7s-1.8-0.9-2.9-1.3s-2.2-0.8-3.4-1.2c-1.2-0.4-2.3-1-3.4-1.6s-2.1-1.3-2.9-2.2
			c-0.9-0.9-1.6-2-2.1-3.3s-0.8-2.9-0.8-4.8c0-2.3,0.4-4.6,1.3-6.7c0.8-2.2,2.1-4.1,3.8-5.8s3.8-3,6.3-4.1c2.5-1,5.4-1.5,8.8-1.5
			c3.3,0,6.3,0.6,8.9,1.7c2.6,1.2,4.8,2.6,6.5,4.2L399.9,60.9"/>
		<path id="Fill-10" class="st1" d="M497.2,59.8c-2.5,0-4.6,1-6.5,3c-1.9,2-3.3,4.7-4.2,8.1c3.1-0.5,5.6-1,7.6-1.5
			c1.9-0.5,3.4-1.1,4.5-1.7s1.8-1.3,2.1-2c0.4-0.7,0.6-1.5,0.6-2.3s-0.3-1.6-1-2.4C499.7,60.2,498.6,59.8,497.2,59.8L497.2,59.8z
			 M514.7,62.7c0,2.3-0.4,4.4-1.3,6.3c-0.9,1.9-2.5,3.6-4.7,5c-2.2,1.5-5.2,2.7-9,3.7s-8.5,1.8-14.2,2.4c0.1,3.4,0.8,5.9,2.2,7.5
			c1.4,1.6,3.5,2.4,6.3,2.4c1.3,0,2.5-0.1,3.4-0.3c1-0.2,1.8-0.5,2.5-0.9s1.4-0.7,1.9-1.1s1.1-0.8,1.7-1.1c0.5-0.4,1.1-0.6,1.7-0.9
			c0.6-0.2,1.2-0.3,2-0.3c0.5,0,0.9,0.1,1.4,0.4c0.4,0.2,0.9,0.6,1.2,0.9l3.9,4.5c-1.8,1.7-3.5,3.2-5.2,4.5s-3.4,2.3-5.2,3.1
			c-1.8,0.8-3.7,1.4-5.7,1.8s-4.2,0.6-6.6,0.6c-3,0-5.7-0.5-8.1-1.5c-2.5-1-4.6-2.4-6.4-4.3c-1.8-1.8-3.2-4.1-4.1-6.7
			c-1-2.6-1.5-5.5-1.5-8.7c0-2.7,0.3-5.3,0.9-7.8s1.4-4.9,2.6-7.1c1.1-2.2,2.5-4.3,4.1-6.2s3.4-3.5,5.4-4.8s4.2-2.4,6.6-3.2
			s4.9-1.1,7.6-1.1s5,0.4,7.1,1.2s3.8,1.8,5.2,3c1.4,1.2,2.5,2.6,3.2,4.2C514.4,59.6,514.7,61.1,514.7,62.7L514.7,62.7z"/>
		<path id="Fill-11" class="st1" d="M518.3,100.3l6.1-49.9h7.7c1.5,0,2.7,0.4,3.6,1.1s1.3,1.9,1.3,3.5v5.7c1.2-2.2,2.5-4,3.9-5.5
			s2.8-2.7,4.3-3.6c1.5-0.8,3-1.3,4.5-1.4c1.5-0.1,3.1,0.2,4.6,0.9l-2.7,13.8c-1.8-0.8-3.5-1.1-5.1-1.1c-1.6,0.1-3,0.6-4.4,1.6
			c-1.3,1-2.5,2.6-3.6,4.6c-1.1,2.1-2,4.7-2.8,7.8l-2.7,22.4L518.3,100.3"/>
		<path id="Fill-12" class="st1" d="M574.1,90c1.7,0,3.2-0.5,4.5-1.5s2.4-2.4,3.3-4.1c0.9-1.7,1.6-3.8,2.1-6.1
			c0.5-2.3,0.7-4.8,0.7-7.4c0-3.6-0.5-6.2-1.5-7.8c-1-1.6-2.6-2.3-4.8-2.3c-1.7,0-3.2,0.5-4.5,1.5s-2.4,2.4-3.3,4.1
			c-0.9,1.7-1.6,3.8-2.1,6.1c-0.5,2.3-0.7,4.8-0.7,7.5c0,3.6,0.5,6.1,1.5,7.7C570.3,89.2,571.9,90,574.1,90L574.1,90z M572.8,101.1
			c-2.8,0-5.4-0.5-7.8-1.4c-2.4-0.9-4.5-2.3-6.3-4.1c-1.8-1.8-3.2-4-4.2-6.6s-1.5-5.6-1.5-9c0-4.4,0.7-8.5,2.2-12.2s3.4-6.9,5.9-9.6
			c2.5-2.7,5.3-4.8,8.6-6.3s6.7-2.3,10.3-2.3c2.8,0,5.4,0.5,7.8,1.4c2.4,0.9,4.5,2.3,6.3,4.1s3.2,4,4.2,6.6s1.5,5.6,1.5,9
			c0,4.4-0.7,8.4-2.2,12.1s-3.4,6.9-5.9,9.6s-5.3,4.8-8.6,6.4C579.8,100.3,576.4,101.1,572.8,101.1L572.8,101.1z"/>
		<path id="Fill-13" class="st1" d="M463.7,30.2c0,0-8.1,0-9,7.7l-2.5,19.9h-25.3l3.4-27.6h-7.7c0,0-7.9,0.1-9,7.5l-7.7,62.6h8.6
			c1.9-0.2,6.7-1.3,8-6.5l2.6-21.5h25.3l-3.4,28h8.6c1.9-0.2,6.7-1.3,8-6.4l7.9-63.7H463.7"/>
	</g>
</g>
</svg>
